<?xml version="1.0" encoding="utf-8"?>
<!-- Generator: Adobe Illustrator 22.1.0, SVG Export Plug-In . SVG Version: 6.00 Build 0)  -->
<svg version="1.1" id="Capa_1" focusable="true" xmlns="http://www.w3.org/2000/svg" xmlns:xlink="http://www.w3.org/1999/xlink"
	 x="0px" y="0px" viewBox="0 0 62.9 48" style="enable-background:new 0 0 62.9 48;" xml:space="preserve">
<style type="text/css">
	.st0{fill:#FFFFFF;}
</style>
<title></title>
<g id="icon-price-tag">
	<path id="Combined-Shape" class="st0" d="M35.8,7.7c-1.1,0-2.1,0.5-2.8,1.2c-1.5,1.6-1.5,4.1,0.1,5.6c0,0,0,0,0,0
		c0.8,0.7,1.7,1.1,2.8,1.1c1.1,0,2.1-0.4,2.9-1.2c0.8-0.8,1.1-1.8,1.1-2.9c0-1.1-0.5-2.1-1.2-2.8C37.8,8.1,36.8,7.7,35.8,7.7
		 M35.8,16.8c-1.3,0-2.7-0.5-3.6-1.4c-2-1.9-2.1-5.2-0.2-7.3c1-1.1,2.3-1.6,3.8-1.6c1.3,0,2.6,0.5,3.6,1.5c1,0.9,1.5,2.2,1.5,3.6
		c0,1.4-0.5,2.6-1.5,3.6C38.5,16.3,37.1,16.8,35.8,16.8 M33.6,26.5c-0.3,0.3-0.7,0.3-1,0c0,0,0,0,0,0l-5.3-5.1c-0.3-0.3-0.3-0.8,0-1
		c0.2-0.3,0.8-0.3,1,0l5.2,5.1C33.9,25.8,33.9,26.2,33.6,26.5 M27.7,16.5l-4.5,0.1v-1.8c0-0.4-0.4-0.7-0.8-0.7
		c-0.4,0-0.7,0.3-0.7,0.7l0,2.5c0,0.3,0.2,0.5,0.5,0.6c0.1,0,0.1,0,0.2,0l5.3-0.1c0.4,0,0.7-0.3,0.7-0.7
		C28.4,16.8,28.1,16.5,27.7,16.5 M27.8,32.6c-0.3,0.3-0.7,0.3-1,0c0,0,0,0,0,0l-5.3-5.1c-0.3-0.2-0.3-0.8,0-1c0.2-0.2,0.8-0.3,1,0
		l5.3,5.1C28,31.8,28,32.3,27.8,32.6 M21.8,22.6l-4.5,0.1v-1.8c0-0.4-0.4-0.8-0.8-0.8c-0.4,0-0.8,0.4-0.7,0.8v2.5
		c0.1,0.3,0.2,0.5,0.5,0.6c0,0,0.1,0,0.2,0l5.2-0.1c0.4,0,0.8-0.4,0.8-0.8S22.2,22.6,21.8,22.6 M22.1,38.5c-0.3,0.3-0.8,0.3-1,0
		l-5.3-5.1c-0.3-0.2-0.3-0.8,0-1c0.3-0.2,0.8-0.3,1,0l5.3,5.1C22.3,37.7,22.4,38.2,22.1,38.5 M16.1,28.5l-4.5,0.1l-0.1-1.8
		c0-0.4-0.4-0.8-0.8-0.8c-0.4,0-0.7,0.4-0.7,0.8l0,2.5c0,0.3,0.2,0.5,0.5,0.6c0.1,0,0.2,0,0.3,0l5.2-0.1c0.4,0,0.7-0.4,0.7-0.8
		S16.5,28.5,16.1,28.5 M43.9,4.9c0-0.5-0.1-0.9-0.3-1.1c-0.3-0.3-0.7-0.3-0.8-0.3h-0.3c-0.8,0-1.8,0-3,0c-5.6,0-13.2-0.3-13.9-0.3
		c-0.1,0-0.3,0-0.5,0.2L1.4,28c-0.1,0.1-0.2,0.3-0.2,0.5s0.1,0.4,0.2,0.5l18.3,17.6c0.2,0.2,0.8,0.2,1,0L44.4,22
		c0.2-0.2,0.2-0.5,0.2-0.7 M20.3,48c-0.5,0-1-0.2-1.4-0.5L0.6,29.8C0.3,29.5,0,29,0,28.5c0-0.5,0.2-1,0.6-1.4L24.2,2.5
		C24.5,2.2,24.9,2,25.4,2h0.1c0.1,0,8.1,0.3,13.9,0.3c1.1,0,2.1,0,3,0h0.3c0.7,0,1.3,0.2,1.8,0.6s0.7,1.1,0.7,2
		c0,0.8,0.7,14.1,0.7,16.6c0,0.5-0.2,1-0.5,1.4L21.6,47.4C21.3,47.8,20.8,48,20.3,48"/>
	<path id="Fill-4" class="st0" d="M62,0c-3,6.4-12.7,6.4-12.7,6.4c-7,0.1-11,2.2-12.8,3.6c-0.7-0.4-1.5-0.2-2.1,0.4
		c-0.7,0.7-0.7,1.9,0,2.5c0.7,0.7,1.8,0.7,2.5,0c0.5-0.6,0.7-1.3,0.4-2c5-3.5,11.9-3.3,11.9-3.3c10.8,0,13.5-7,13.5-7L62,0L62,0z"/>
</g>
</svg>
