<?xml version="1.0" encoding="utf-8"?>
<!-- Generator: Adobe Illustrator 22.1.0, SVG Export Plug-In . SVG Version: 6.00 Build 0)  -->
<svg version="1.1" id="Capa_1" focusable="true" xmlns="http://www.w3.org/2000/svg" xmlns:xlink="http://www.w3.org/1999/xlink"
	 x="0px" y="0px" viewBox="0 0 425.5 141.7" style="enable-background:new 0 0 425.5 141.7;" xml:space="preserve">
<style type="text/css">
	.st0{fill:#FFFFFF;}
</style>
<title></title>
<g id="condensed">
	<path id="Fill-7" class="st0" d="M408.1,129.9c-1.2,0-2.1,1-2.1,2.2c0,1.2,0.9,2.1,2.1,2.1c1.2,0,2.2-0.9,2.2-2.1
		C410.3,131,409.3,129.9,408.1,129.9z M395.7,137.6h25.6V83.2h-25.6V137.6z M395.6,79.1h25.8c2.4,0,4.1,1.8,4.1,4.1v54.2
		c0,2.4-1.8,4.3-4.1,4.3h-25.8c-2.2,0-4.1-1.9-4.1-4.3V83.2C391.5,80.9,393.4,79.1,395.6,79.1z M218.8,129.9h143.8V38.9H218.8
		C218.8,38.9,218.8,129.9,218.8,129.9z M218.8,34.8h143.9c2.2,0,4.1,1.9,4.1,4.3v90.9c0,2.4-1.9,4.1-4.1,4.1H218.8
		c-2.4,0-4.1-1.8-4.1-4.1V39C214.7,36.7,216.4,34.8,218.8,34.8z M385.9,137.2v1.9c0,1.5-2.4,2.7-5.2,2.7H199.8
		c-2.9,0-5.2-1.2-5.2-2.7v-1.9H385.9z M56.4,139.8v-7.2c0-2.4,1.9-4.3,4.1-4.3h87.7c2.4,0,4.1,1.9,4.1,4.3v7.2h-4.1v-7.4H60.7v7.4
		H56.4L56.4,139.8z M4.1,121.3h201.4V4.1H4.1V121.3z M4.1,0h201.4c2.4,0,4.3,1.8,4.3,4.1v117.1c0,2.2-1.9,4.1-4.3,4.1H4.1
		c-2.3,0-4.1-1.8-4.1-4.1c0,0,0,0,0,0V4.1C0,1.8,1.8,0,4.1,0z"/>
</g>
</svg>
